<svg width="36" height="33" viewBox="0 0 36 33" fill="none" xmlns="http://www.w3.org/2000/svg">
<path d="M1.5 31.625L4.425 22.4125C3.95 21.4729 3.59375 20.5104 3.35625 19.525C3.11875 18.5396 3 17.5313 3 16.5C3 14.5979 3.39375 12.8104 4.18125 11.1375C4.96875 9.46458 6.0375 8.00938 7.3875 6.77188C8.7375 5.53438 10.325 4.55469 12.15 3.83281C13.975 3.11094 15.925 2.75 18 2.75C20.075 2.75 22.025 3.11094 23.85 3.83281C25.675 4.55469 27.2625 5.53438 28.6125 6.77188C29.9625 8.00938 31.0313 9.46458 31.8188 11.1375C32.6063 12.8104 33 14.5979 33 16.5C33 18.4021 32.6063 20.1896 31.8188 21.8625C31.0313 23.5354 29.9625 24.9906 28.6125 26.2281C27.2625 27.4656 25.675 28.4453 23.85 29.1672C22.025 29.8891 20.075 30.25 18 30.25C16.875 30.25 15.775 30.1411 14.7 29.9234C13.625 29.7057 12.575 29.3792 11.55 28.9438L1.5 31.625ZM5.925 27.5688L10.725 26.2625C11.075 26.1708 11.4313 26.1365 11.7938 26.1594C12.1563 26.1823 12.5 26.2625 12.825 26.4C13.625 26.7667 14.4625 27.0417 15.3375 27.225C16.2125 27.4083 17.1 27.5 18 27.5C21.35 27.5 24.1875 26.4344 26.5125 24.3031C28.8375 22.1719 30 19.5708 30 16.5C30 13.4292 28.8375 10.8281 26.5125 8.69688C24.1875 6.56563 21.35 5.5 18 5.5C14.65 5.5 11.8125 6.56563 9.4875 8.69688C7.1625 10.8281 6 13.4292 6 16.5C6 17.325 6.1 18.1385 6.3 18.9406C6.5 19.7427 6.8 20.5104 7.2 21.2438C7.375 21.5417 7.46875 21.8568 7.48125 22.1891C7.49375 22.5214 7.45 22.8479 7.35 23.1688L5.925 27.5688ZM16.5 22H19.5V17.875H24V15.125H19.5V11H16.5V15.125H12V17.875H16.5V22Z" fill="black"/>
</svg>
