<svg width="100" height="72" viewBox="0 0 100 72" fill="none" xmlns="http://www.w3.org/2000/svg">
<path d="M81.0174 70.523H64.6581C63.3727 70.523 62.3211 69.5312 62.3211 68.3191V60.973C62.3211 59.7609 63.3727 58.7691 64.6581 58.7691H81.0174C84.4645 58.7691 87.2495 56.1429 87.2495 52.8922V17.6307C87.2495 14.3801 84.4645 11.7538 81.0174 11.7538H64.6581C63.3727 11.7538 62.3211 10.7621 62.3211 9.54998V2.20384C62.3211 0.991729 63.3727 0 64.6581 0H81.0174C91.3393 0 99.7137 7.8971 99.7137 17.6307V52.8922C99.7137 62.6259 91.3393 70.523 81.0174 70.523ZM71.864 33.6086L39.1454 2.7548C36.2241 0 31.1605 1.92836 31.1605 5.87691V23.5077H4.67408C2.08386 23.5077 0 25.4727 0 27.9153V45.5461C0 47.9887 2.08386 49.9538 4.67408 49.9538H31.1605V67.5845C31.1605 71.5331 36.2241 73.4614 39.1454 70.7066L71.864 39.8528C73.6752 38.1265 73.6752 35.3349 71.864 33.6086Z" fill="#FE8B04"/>
</svg>
