<svg width="103" height="84" viewBox="0 0 103 84" fill="none" xmlns="http://www.w3.org/2000/svg">
<path d="M51.5 77C49.6403 77 47.9594 76.6354 46.4573 75.9062C44.9552 75.1771 43.775 74.2 42.9167 72.975C40.5562 72.975 38.5356 72.2896 36.8547 70.9187C35.1738 69.5479 34.3333 67.9 34.3333 65.975V53.55C30.1132 51.275 26.7335 48.2708 24.1943 44.5375C21.655 40.8042 20.3854 36.75 20.3854 32.375C20.3854 25.3167 23.4075 19.3229 29.4516 14.3937C35.4956 9.46458 42.8451 7 51.5 7C60.1549 7 67.5043 9.46458 73.5484 14.3937C79.5925 19.3229 82.6146 25.3167 82.6146 32.375C82.6146 36.8667 81.345 40.95 78.8057 44.625C76.2665 48.3 72.8868 51.275 68.6667 53.55V65.975C68.6667 67.9 67.8262 69.5479 66.1453 70.9187C64.4644 72.2896 62.4437 72.975 60.0833 72.975C59.225 74.2 58.0448 75.1771 56.5427 75.9062C55.0406 76.6354 53.3597 77 51.5 77ZM42.9167 65.975H60.0833V62.825H42.9167V65.975ZM42.9167 59.325H60.0833V56H42.9167V59.325ZM42.0583 49H48.2812V39.55L38.8396 31.85L43.3458 28.175L51.5 34.825L59.6542 28.175L64.1604 31.85L54.7187 39.55V49H60.9417C64.8042 47.4833 67.9514 45.2521 70.3833 42.3062C72.8153 39.3604 74.0312 36.05 74.0312 32.375C74.0312 27.2417 71.8496 22.8958 67.4864 19.3375C63.1233 15.7792 57.7944 14 51.5 14C45.2055 14 39.8767 15.7792 35.5135 19.3375C31.1503 22.8958 28.9687 27.2417 28.9687 32.375C28.9687 36.05 30.1847 39.3604 32.6167 42.3062C35.0486 45.2521 38.1958 47.4833 42.0583 49Z" fill="#FFFCFC"/>
</svg>
