<svg width="68" height="68" viewBox="0 0 68 68" fill="none" xmlns="http://www.w3.org/2000/svg">
<path d="M45.3333 59.5C43.775 59.5 42.441 58.9451 41.3313 57.8354C40.2215 56.7257 39.6667 55.3917 39.6667 53.8333V42.5C39.6667 40.9417 40.2215 39.6076 41.3313 38.4979C42.441 37.3882 43.775 36.8333 45.3333 36.8333H56.6667C58.225 36.8333 59.559 37.3882 60.6688 38.4979C61.7785 39.6076 62.3333 40.9417 62.3333 42.5V53.8333C62.3333 55.3917 61.7785 56.7257 60.6688 57.8354C59.559 58.9451 58.225 59.5 56.6667 59.5H45.3333ZM45.3333 53.8333H56.6667V42.5H45.3333V53.8333ZM5.66667 51V45.3333H31.1667V51H5.66667ZM45.3333 31.1667C43.775 31.1667 42.441 30.6118 41.3313 29.5021C40.2215 28.3924 39.6667 27.0583 39.6667 25.5V14.1667C39.6667 12.6083 40.2215 11.2743 41.3313 10.1646C42.441 9.05486 43.775 8.5 45.3333 8.5H56.6667C58.225 8.5 59.559 9.05486 60.6688 10.1646C61.7785 11.2743 62.3333 12.6083 62.3333 14.1667V25.5C62.3333 27.0583 61.7785 28.3924 60.6688 29.5021C59.559 30.6118 58.225 31.1667 56.6667 31.1667H45.3333ZM45.3333 25.5H56.6667V14.1667H45.3333V25.5ZM5.66667 22.6667V17H31.1667V22.6667H5.66667Z" fill="white"/>
</svg>
