<svg width="30" height="26" viewBox="0 0 30 26" fill="none" xmlns="http://www.w3.org/2000/svg">
<path d="M15 25.2312L12.825 23.4437C10.3 21.3583 8.2125 19.5594 6.5625 18.0469C4.9125 16.5344 3.6 15.1766 2.625 13.9734C1.65 12.7703 0.96875 11.6646 0.58125 10.6562C0.19375 9.64792 0 8.61667 0 7.5625C0 5.40833 0.7875 3.60937 2.3625 2.16562C3.9375 0.721875 5.9 0 8.25 0C9.55 0 10.7875 0.252083 11.9625 0.75625C13.1375 1.26042 14.15 1.97083 15 2.8875C15.85 1.97083 16.8625 1.26042 18.0375 0.75625C19.2125 0.252083 20.45 0 21.75 0C24.1 0 26.0625 0.721875 27.6375 2.16562C29.2125 3.60937 30 5.40833 30 7.5625C30 8.61667 29.8063 9.64792 29.4188 10.6562C29.0313 11.6646 28.35 12.7703 27.375 13.9734C26.4 15.1766 25.0875 16.5344 23.4375 18.0469C21.7875 19.5594 19.7 21.3583 17.175 23.4437L15 25.2312ZM15 21.5187C17.4 19.5479 19.375 17.8578 20.925 16.4484C22.475 15.0391 23.7 13.813 24.6 12.7703C25.5 11.7276 26.125 10.7995 26.475 9.98594C26.825 9.1724 27 8.36458 27 7.5625C27 6.1875 26.5 5.04167 25.5 4.125C24.5 3.20833 23.25 2.75 21.75 2.75C20.575 2.75 19.4875 3.05365 18.4875 3.66094C17.4875 4.26823 16.8 5.04167 16.425 5.98125H13.575C13.2 5.04167 12.5125 4.26823 11.5125 3.66094C10.5125 3.05365 9.425 2.75 8.25 2.75C6.75 2.75 5.5 3.20833 4.5 4.125C3.5 5.04167 3 6.1875 3 7.5625C3 8.36458 3.175 9.1724 3.525 9.98594C3.875 10.7995 4.5 11.7276 5.4 12.7703C6.3 13.813 7.525 15.0391 9.075 16.4484C10.625 17.8578 12.6 19.5479 15 21.5187Z" fill="black"/>
</svg>
