<svg width="53" height="59" viewBox="0 0 53 59" fill="none" xmlns="http://www.w3.org/2000/svg">
<path d="M8.8335 46.7083V41.7916H13.2502V24.5833C13.2502 21.1826 14.1703 18.1609 16.0106 15.5182C17.8509 12.8755 20.2432 11.1444 23.1877 10.325V8.60413C23.1877 7.57982 23.5097 6.70916 24.1538 5.99215C24.7979 5.27513 25.58 4.91663 26.5002 4.91663C27.4203 4.91663 28.2024 5.27513 28.8465 5.99215C29.4906 6.70916 29.8127 7.57982 29.8127 8.60413V10.325C32.7571 11.1444 35.1495 12.8755 36.9897 15.5182C38.83 18.1609 39.7502 21.1826 39.7502 24.5833V41.7916H44.1668V46.7083H8.8335ZM26.5002 54.0833C25.2856 54.0833 24.2458 53.6019 23.3809 52.639C22.516 51.6762 22.0835 50.5187 22.0835 49.1666H30.9168C30.9168 50.5187 30.4844 51.6762 29.6194 52.639C28.7545 53.6019 27.7147 54.0833 26.5002 54.0833ZM17.6668 41.7916H35.3335V24.5833C35.3335 21.8791 34.4686 19.5642 32.7387 17.6385C31.0088 15.7128 28.9293 14.75 26.5002 14.75C24.071 14.75 21.9915 15.7128 20.2616 17.6385C18.5318 19.5642 17.6668 21.8791 17.6668 24.5833V41.7916Z" fill="#FFFCFC"/>
</svg>
