<svg width="51" height="35" viewBox="0 0 51 35" fill="none" xmlns="http://www.w3.org/2000/svg">
<path d="M6.375 30.625C5.20625 30.625 4.20573 30.3394 3.37344 29.7683C2.54115 29.1971 2.125 28.5105 2.125 27.7084V10.2084C2.125 9.40629 2.54115 8.71966 3.37344 8.14848C4.20573 7.5773 5.20625 7.29171 6.375 7.29171H13.0688L17 4.37504H29.75V7.29171H18.8594L14.9813 10.2084H6.375V27.7084H40.375V14.5834H44.625V27.7084C44.625 28.5105 44.2089 29.1971 43.3766 29.7683C42.5443 30.3394 41.5438 30.625 40.375 30.625H6.375ZM40.375 10.2084V7.29171H36.125V4.37504H40.375V1.45837H44.625V4.37504H48.875V7.29171H44.625V10.2084H40.375ZM23.375 25.5209C26.0313 25.5209 28.2891 24.8829 30.1484 23.6068C32.0078 22.3308 32.9375 20.7813 32.9375 18.9584C32.9375 17.1355 32.0078 15.586 30.1484 14.3099C28.2891 13.0339 26.0313 12.3959 23.375 12.3959C20.7188 12.3959 18.4609 13.0339 16.6016 14.3099C14.7422 15.586 13.8125 17.1355 13.8125 18.9584C13.8125 20.7813 14.7422 22.3308 16.6016 23.6068C18.4609 24.8829 20.7188 25.5209 23.375 25.5209ZM23.375 22.6042C21.8875 22.6042 20.6302 22.2518 19.6031 21.5469C18.576 20.8421 18.0625 19.9792 18.0625 18.9584C18.0625 17.9375 18.576 17.0747 19.6031 16.3698C20.6302 15.665 21.8875 15.3125 23.375 15.3125C24.8625 15.3125 26.1198 15.665 27.1469 16.3698C28.174 17.0747 28.6875 17.9375 28.6875 18.9584C28.6875 19.9792 28.174 20.8421 27.1469 21.5469C26.1198 22.2518 24.8625 22.6042 23.375 22.6042Z" fill="#FF9A02"/>
</svg>
