<svg width="55" height="53" viewBox="0 0 55 53" fill="none" xmlns="http://www.w3.org/2000/svg">
<path d="M53.3289 45.6409L42.8004 35.3621C42.3252 34.8982 41.681 34.6405 41.0052 34.6405H39.2839C42.1985 31.0012 43.9303 26.4237 43.9303 21.4441C43.9303 9.59829 34.0988 0 21.9652 0C9.83153 0 0 9.59829 0 21.4441C0 33.2899 9.83153 42.8882 21.9652 42.8882C27.0657 42.8882 31.7545 41.1974 35.4822 38.3519V40.0324C35.4822 40.6922 35.7462 41.3211 36.2214 41.7851L46.7499 52.0638C47.7426 53.0329 49.3477 53.0329 50.3298 52.0638L53.3183 49.1462C54.311 48.177 54.311 46.61 53.3289 45.6409ZM21.9652 34.6405C14.4991 34.6405 8.44814 28.7433 8.44814 21.4441C8.44814 14.1552 14.4886 8.24773 21.9652 8.24773C29.4312 8.24773 35.4822 14.1449 35.4822 21.4441C35.4822 28.733 29.4418 34.6405 21.9652 34.6405Z" fill="black"/>
</svg>
