<svg width="73" height="51" viewBox="0 0 73 51" fill="none" xmlns="http://www.w3.org/2000/svg">
<path d="M66.9319 30.0142L72.9231 9.29545C73.3556 7.79951 71.9089 6.375 69.9571 6.375H20.1774L19.0157 1.9115C18.7263 0.798967 17.4807 0 16.0358 0H3.04167C1.36178 0 0 1.0703 0 2.39062V3.98438C0 5.3047 1.36178 6.375 3.04167 6.375H11.8984L20.8013 40.5843C18.6714 41.5471 17.2361 43.3522 17.2361 45.4219C17.2361 48.5026 20.4136 51 24.3333 51C28.253 51 31.4306 48.5026 31.4306 45.4219C31.4306 43.8606 30.6135 42.45 29.2984 41.4375H55.8682C54.5532 42.45 53.7361 43.8606 53.7361 45.4219C53.7361 48.5026 56.9137 51 60.8333 51C64.753 51 67.9306 48.5026 67.9306 45.4219C67.9306 43.2133 66.2972 41.3048 63.9284 40.4011L64.6276 37.9829C65.0601 36.487 63.6134 35.0625 61.6616 35.0625H27.6433L26.8138 31.875H63.9659C65.3861 31.875 66.6172 31.1026 66.9319 30.0142Z" fill="#FFFAFA"/>
</svg>
