<svg width="150" height="250" viewBox="0 0 293 395" fill="none" xmlns="http://www.w3.org/2000/svg">
<path d="M146.5 197.5C192.739 197.5 230.214 153.294 230.214 98.75C230.214 44.2061 192.739 0 146.5 0C100.261 0 62.7857 44.2061 62.7857 98.75C62.7857 153.294 100.261 197.5 146.5 197.5ZM205.1 222.188H194.178C179.659 230.057 163.504 234.531 146.5 234.531C129.496 234.531 113.407 230.057 98.8221 222.188H87.9C39.3719 222.188 0 268.631 0 325.875V357.969C0 378.413 14.0614 395 31.3929 395H261.607C278.939 395 293 378.413 293 357.969V325.875C293 268.631 253.628 222.188 205.1 222.188Z" fill="#0E0E0E"/>
</svg>
